<svg xmlns="http://www.w3.org/2000/svg" viewBox="0 0 657.6 657.6">
  <defs>
    <style>
      .cls-1 {
      fill: #ffffff;
      }
    </style>
  </defs>
  <title>Recurso 7</title>
  <g id="Capa_2" data-name="Capa 2">
    <g id="Capa_1-2" data-name="Capa 1">
      <path class="cls-1" d="M217.05,374.69h223.5a5.32,5.32,0,0,0,5.32-5.32V172.48a5.32,5.32,0,0,0-5.32-5.32H217.05a5.32,5.32,0,0,0-5.32,5.32V369.37A5.32,5.32,0,0,0,217.05,374.69ZM360.73,177.8h74.49v32H360.73Zm-53.22,0h42.57v32H307.51Zm0,42.58h42.57v21.28H307.51ZM222.38,177.8h74.49v32H222.38Zm0,42.58h74.49V247a5.33,5.33,0,0,0,5.33,5.32h53.2a5.33,5.33,0,0,0,5.33-5.32h0v-26.6h74.49V364.05H222.38Z" />
      <path class="cls-1" d="M470.4,401.3a18.49,18.49,0,0,0-8.65,2.17l-65.11,35.08H310.18a8,8,0,0,1,0-16h45.21a32,32,0,0,0,32-31.95h0a5.32,5.32,0,0,0-5.32-5.32H249.45a27,27,0,0,0-13.32,3.52L205,406.62H169.16v10.65h32v58.57h-32v10.6H398a5.28,5.28,0,0,0,2.82-.78L480,436.08a17.87,17.87,0,0,0,8.47-15.2v-1.55A18.07,18.07,0,0,0,470.4,401.3Zm7.44,19.55a7.26,7.26,0,0,1-3.47,6.16l-77.92,48.83H211.71V415l29.7-17a16.32,16.32,0,0,1,8-2.1H376a21.31,21.31,0,0,1-20.61,15.94H310.19a18.63,18.63,0,0,0-.76,37.25H398a5.27,5.27,0,0,0,2.52-.64l66.3-35.7a7.58,7.58,0,0,1,3.6-.91,7.4,7.4,0,0,1,7.4,7.4Z" />
      <rect class="cls-1" x="413.94" y="342.76" width="10.64" height="10.64" />
      <rect class="cls-1" x="392.66" y="342.76" width="10.65" height="10.64" />
      <rect class="cls-1" x="371.37" y="342.76" width="10.64" height="10.64" />
    </g>
  </g>
</svg>
